:SAMPLES-PER-SECOND 30
:FRAME-RANGE 1-2045
:FULLY-SPECIFIED
:DEGREES
959
root  -63.893 36.5524 -21.9791 0.407394 59.3766 -3.33762
RightUpLeg  -16.2007 -6.08714 -7.65878
RightLeg  40.0617 2.41762 1.90619
RightFoot  -25.4197 1.19275 11.0315
RightToes  -5.28216e-011 1.2921e-014 -6.02303e-014
Spine  3.55795 -3.68432 -5.24615
Spine1  8.92219 -4.54743 1.25522
HEad  12.4017 -0.926316 5.71973
LeftShoulder1  3.74758 -11.5271 -18.9847
LeftArm  -3.04647 -25.0158 -53.5798
LeftForeArm  1.33018 5.09574 -11.9108
LeftHand  0.110225 2.81587 -5.84676
RightShoulder  2.30348 5.15727 20.9702
RightArm  -30.405 28.3161 55.6246
RightForeArm  30.5689 -5.23467 -3.11077
RightHand  -0.0248543 -3.31841 -0.39253
LeftUpLeg  -29.0113 18.6568 15.7263
LeftLeg  16.0179 27.0029 7.33831
LeftFoot  11.4077 2.19662 -11.2396
LeftToes  9.43379e-011 5.24309e-011 -4.66411e-011
960
root  -64.1935 36.5476 -21.9773 1.0549 54.6417 -2.34016
RightUpLeg  -18.0432 -2.40479 -7.70884
RightLeg  40.9389 2.97553 2.48757
RightFoot  -24.7832 1.05214 10.3351
RightToes  -5.28216e-011 1.2921e-014 -6.02303e-014
Spine  3.86291 -4.45126 -6.28227
Spine1  9.24001 -5.59322 1.98345
HEad  11.9622 4.31279 4.13647
LeftShoulder1  3.88055 -12.1095 -18.8819
LeftArm  -2.96236 -26.1608 -54.1466
LeftForeArm  2.51714 5.42139 -11.8964
LeftHand  0.132663 2.65977 -6.44124
RightShoulder  2.2592 5.11846 20.5396
RightArm  -30.3561 29.6115 54.7014
RightForeArm  30.9126 -5.22626 -3.1333
RightHand  -0.0173652 -3.02282 -0.0439885
LeftUpLeg  -27.4994 16.6486 17.2142
LeftLeg  15.6323 21.6289 6.70007
LeftFoot  9.40662 2.51356 -13.9888
LeftToes  9.43379e-011 5.24309e-011 -4.66411e-011
961
root  -64.3948 36.5739 -22.0329 1.68715 50.1379 -1.49121
RightUpLeg  -19.7052 0.456735 -8.05462
RightLeg  41.4041 3.96312 3.46076
RightFoot  -23.9749 0.892137 9.51316
RightToes  -5.28216e-011 1.2921e-014 -6.02303e-014
Spine  4.26313 -5.10183 -6.9861
Spine1  9.4951 -6.43252 2.41056
HEad  10.972 8.8267 2.5468
LeftShoulder1  3.97296 -12.6747 -18.5411
LeftArm  -3.3521 -27.8854 -54.7977
LeftForeArm  3.79365 5.81956 -11.6262
LeftHand  0.149794 2.30061 -6.24739
RightShoulder  2.21553 5.02278 20.3052
RightArm  -29.9547 31.1696 53.5734
RightForeArm  31.5468 -5.2685 -2.84377
RightHand  -0.0119026 -2.70334 0.126229
LeftUpLeg  -26.1896 14.3672 18.1425
LeftLeg  15.2351 16.7428 6.23804
LeftFoot  7.50973 2.46593 -15.0594
LeftToes  9.43379e-011 5.24309e-011 -4.66411e-011
962
root  -64.5184 36.6164 -22.1266 2.33667 45.4658 -0.966629
RightUpLeg  -21.4618 3.34463 -8.4513
RightLeg  41.4218 5.12965 4.55918
RightFoot  -23.0382 0.762607 8.95813
RightToes  -5.28216e-011 1.2921e-014 -6.02303e-014
Spine  4.52611 -5.50782 -7.29278
Spine1  9.69809 -6.92355 2.63145
HEad  9.39053 12.8864 0.669166
LeftShoulder1  4.04065 -13.2447 -18.0532
LeftArm  -3.77706 -29.7701 -55.0704
LeftForeArm  4.06539 5.75394 -11.34
LeftHand  0.112639 2.07621 -4.43804
RightShoulder  2.14965 4.89972 19.8677
RightArm  -29.3989 32.9135 52.8899
RightForeArm  31.6901 -5.32205 -2.52635
RightHand  0.00162523 -2.33828 0.558707
LeftUpLeg  -24.9542 13.0002 18.7902
LeftLeg  14.4516 10.7839 5.15906
LeftFoot  5.7004 2.37714 -16.0112
LeftToes  9.43379e-011 5.24309e-011 -4.66411e-011
963
root  -64.5667 36.6691 -22.2514 2.82126 40.6125 -0.94249
RightUpLeg  -23.2564 6.56402 -8.68899
RightLeg  41.0166 6.19545 5.4769
RightFoot  -21.9579 0.663773 8.73513
RightToes  -5.28216e-011 1.2921e-014 -6.02303e-014
Spine  4.86027 -5.74938 -7.24426
Spine1  9.60301 -7.23172 2.94079
HEad  7.7822 16.7743 -1.28012
LeftShoulder1  4.06405 -13.4755 -17.8387
LeftArm  -4.72356 -31.4862 -54.8454
LeftForeArm  4.36563 5.09656 -10.8309
LeftHand  0.124925 1.77585 -4.40574
RightShoulder  2.15209 4.96458 19.6789
RightArm  -28.7835 34.7898 52.2578
RightForeArm  31.8465 -4.93302 -2.08126
RightHand  0.0145468 -1.90545 0.844877
LeftUpLeg  -23.7156 12.1728 19.5343
LeftLeg  13.7281 3.85553 3.84299
LeftFoot  3.75542 2.34081 -17.717
LeftToes  9.43379e-011 5.24309e-011 -4.66411e-011
964
root  -64.5322 36.7092 -22.42 3.701 35.6702 -0.574158
RightUpLeg  -25.2981 9.51773 -9.53567
RightLeg  40.66 7.52877 6.61592
RightFoot  -20.9302 0.576298 8.55234
RightToes  -5.28216e-011 1.2921e-014 -6.02303e-014
Spine  5.2772 -5.7891 -7.31329
Spine1  9.345 -7.26224 3.06961
HEad  5.97088 19.9943 -3.23367
LeftShoulder1  4.05187 -13.5956 -17.573
LeftArm  -5.43618 -33.1597 -54.2789
LeftForeArm  4.00467 3.97306 -10.4762
LeftHand  0.133036 1.51043 -4.29816
RightShoulder  2.13604 4.99601 19.3642
RightArm  -28.0879 36.6363 52.0516
RightForeArm  31.1364 -3.00405 -1.37778
RightHand  0.0166866 -1.72509 0.839263
LeftUpLeg  -22.6188 10.9804 19.7749
LeftLeg  13.4719 -2.41205 2.83199
LeftFoot  1.39071 2.19771 -19.608
LeftToes  9.43379e-011 5.24309e-011 -4.66411e-011
965
root  -64.4271 36.7583 -22.6112 4.29749 31.2788 -0.606354
RightUpLeg  -26.9603 12.0956 -10.2437
RightLeg  39.8632 8.86658 7.60248
RightFoot  -19.9186 0.519877 8.72219
RightToes  -5.28216e-011 1.2921e-014 -6.02303e-014
Spine  5.78524 -5.88026 -6.94609
Spine1  9.13353 -7.32168 3.10967
HEad  4.05941 22.7459 -5.13888
LeftShoulder1  3.99955 -13.66 -17.1389
LeftArm  -6.27287 -34.8614 -53.6815
LeftForeArm  3.25328 2.84461 -10.0749
LeftHand  0.133717 1.10104 -3.83481
RightShoulder  2.17879 5.22927 19.1495
RightArm  -27.724 38.1916 51.7086
RightForeArm  30.3964 -0.66446 -0.740611
RightHand  0.0193727 -1.43768 0.916279
LeftUpLeg  -21.9122 9.47276 20.1995
LeftLeg  14.0493 -7.48162 1.758
LeftFoot  -0.848756 1.88574 -20.2961
LeftToes  9.43379e-011 5.24309e-011 -4.66411e-011
966
root  -64.2673 36.8274 -22.8138 4.79314 27.266 -0.796997
RightUpLeg  -28.3282 14.7756 -10.9416
RightLeg  38.6658 9.81147 8.07507
RightFoot  -18.9111 0.479877 9.17894
RightToes  -5.28216e-011 1.2921e-014 -6.02303e-014
Spine  6.32846 -5.82814 -6.48918
Spine1  8.9693 -7.27632 3.30415
HEad  2.30731 24.88 -6.91778
LeftShoulder1  3.97178 -13.7963 -16.7569
LeftArm  -6.86199 -36.5411 -52.9101
LeftForeArm  2.22656 1.19889 -9.84709
LeftHand  0.131092 1.01118 -3.67052
RightShoulder  2.15202 5.22772 18.8148
RightArm  -27.7394 39.5247 51.8674
RightForeArm  29.8356 1.99418 -0.334413
RightHand  0.0222773 -1.22112 0.815398
LeftUpLeg  -21.3499 7.3826 20.7786
LeftLeg  14.9357 -9.83591 1.03706
LeftFoot  -1.93388 1.64936 -19.7351
LeftToes  9.43379e-011 5.24309e-011 -4.66411e-011
967
root  -64.0421 36.9016 -22.9958 5.01093 23.793 -1.02153
RightUpLeg  -29.0677 16.7352 -11.589
RightLeg  37.2385 10.9335 8.56028
RightFoot  -18.0901 0.457275 9.81949
RightToes  -5.28216e-011 1.2921e-014 -6.02303e-014
Spine  6.65471 -5.91234 -5.91622
Spine1  9.3298 -7.33797 3.23375
HEad  1.08002 26.5862 -8.26695
LeftShoulder1  3.94126 -13.7975 -16.5609
LeftArm  -7.42611 -38.3137 -51.3721
LeftForeArm  1.96974 -0.75776 -9.77315
LeftHand  0.17628 0.568429 -4.36634
RightShoulder  2.24206 5.61199 18.7376
RightArm  -28.229 41.1906 51.395
RightForeArm  28.7812 4.47782 -0.159466
RightHand  0.0272938 -1.40291 1.03072
LeftUpLeg  -20.679 4.71772 21.586
LeftLeg  16.1165 -9.61283 0.451547
LeftFoot  -3.42229 1.33554 -18.8525
LeftToes  9.43379e-011 5.24309e-011 -4.66411e-011
968
root  -63.7855 36.9582 -23.1609 5.15939 20.6389 -1.1982
RightUpLeg  -29.6571 18.481 -12.3082
RightLeg  35.9022 12.0414 8.98812
RightFoot  -17.4859 0.453055 10.6294
RightToes  -5.28216e-011 1.2921e-014 -6.02303e-014
Spine  6.70716 -5.77993 -5.70076
Spine1  10.0576 -7.29537 3.52457
HEad  0.367725 27.7809 -9.67327
LeftShoulder1  3.87748 -13.8945 -16.0141
LeftArm  -8.3539 -40.4215 -50.3688
LeftForeArm  0.974587 -2.33193 -9.46768
LeftHand  0.228478 0.0711076 -5.03846
RightShoulder  2.27993 5.9079 18.312
RightArm  -28.6948 43.0303 50.4997
RightForeArm  27.7777 6.86524 0.115937
RightHand  0.0311787 -1.62282 1.25148
LeftUpLeg  -19.8821 2.4607 22.3433
LeftLeg  17.1322 -5.95177 0.878307
LeftFoot  -4.76852 1.15868 -19.5181
LeftToes  9.43379e-011 5.24309e-011 -4.66411e-011
